<svg xmlns="http://www.w3.org/2000/svg" viewBox="0 0 768 768"><defs><style>.cls-1{fill:#06c8a1;}.cls-2{fill:#272f51;}</style></defs><g id="Layer_2" data-name="Layer 2"><g id="Layer_1-2" data-name="Layer 1"><path class="cls-1" d="M768,384a386.69,386.69,0,0,1-2.94,47.68,381.93,381.93,0,0,1-63.7,168.57C632.22,701.53,515.88,768,384,768A383.81,383.81,0,0,1,0,384a386.23,386.23,0,0,1,6.23-69.24A381.9,381.9,0,0,1,84.82,143.24,384.21,384.21,0,0,1,569.3,47.6a380.23,380.23,0,0,1,36.39,22.82,385.78,385.78,0,0,1,89.57,88.66A382.72,382.72,0,0,1,768,384Z"/><path class="cls-2" d="M384,0A382.71,382.71,0,0,0,113.46,111.5c55.05,8,118.25,23.64,185.49,46.58A85,85,0,0,1,429,133.23C478.8,96.75,526.52,67.72,569.3,47.6A382.12,382.12,0,0,0,384,0ZM289,198c0-1.85.06-3.68.18-5.5-77.83-27.07-148.66-43.92-204.36-49.26a383.16,383.16,0,0,0-69,131.22C40.44,298.4,72.7,324,111,349.81a85,85,0,0,1,98-15.88c20.46-22.77,42.27-45.6,65.3-68.23q13-12.83,26.17-25.13A84.6,84.6,0,0,1,289,198ZM86,410a84.73,84.73,0,0,1,5.34-29.69c-32.11-21.89-60.7-43.95-85.11-65.55A386.23,386.23,0,0,0,0,384,382.2,382.2,0,0,0,46.28,566.9c14.78-31.68,34.83-66.24,59.47-102.44A84.62,84.62,0,0,1,86,410ZM343,526a85.56,85.56,0,0,1,.74-11.27q-21.53-8.91-43.32-18.72-33.3-15-64.68-30.95a85,85,0,0,1-102.39,21.15C103,530.52,81.11,571,69.45,604.3a385.86,385.86,0,0,0,80.33,84c53.36-17.22,125.52-60.54,203.11-122.51A84.62,84.62,0,0,1,343,526Zm95.34-272.47a85,85,0,0,1-113.66,13.69q-12.51,11.79-25,24.09c-22.09,21.71-43,43.52-62.64,65.15a85.08,85.08,0,0,1,16,75.79q30.36,15.31,62.79,29.94,20.51,9.24,40.76,17.69a85,85,0,0,1,119.2-24.16A1475,1475,0,0,0,586.14,333.38C542.43,306.13,492.53,279,438.34,253.53Zm280.46-57.7c-19.26,39.69-46.49,83.65-80.44,129.51,52.66,35.91,95.89,72.25,126.7,106.34A386.69,386.69,0,0,0,768,384,382.15,382.15,0,0,0,718.8,195.83ZM617,353.32A1441.62,1441.62,0,0,1,501.23,482.85,84.5,84.5,0,0,1,513,526a83.31,83.31,0,0,1-.46,8.84c92,26,168.57,34.89,213.35,24.17a381.42,381.42,0,0,0,30-78.91C734,443.46,684.79,398.77,617,353.32Zm-9.06-48c41.21-54.73,71.35-105.26,87.31-146.24a385.78,385.78,0,0,0-89.57-88.66c-43.2,16.3-96.91,47.69-155.05,90.79a85.23,85.23,0,0,1,5,60.61A1403.15,1403.15,0,0,1,608,305.32ZM501.09,569.4a85,85,0,0,1-124.35,24.39c-68.13,53.93-133.82,95-190.06,119.7A382.21,382.21,0,0,0,384,768c131.88,0,248.22-66.47,317.36-167.75C647.51,601.38,578.33,590.82,501.09,569.4Z"/><path class="cls-2" d="M475.09,525.62a47.48,47.48,0,0,1-94.81,3.7c-.09-1.22-.14-2.45-.14-3.7a47.47,47.47,0,0,1,94.9-2C475.08,524.25,475.09,524.93,475.09,525.62Z"/><path class="cls-2" d="M218.09,409.62c0,1.46-.07,2.91-.2,4.34a47.48,47.48,0,1,1,.2-4.34Z"/><path class="cls-2" d="M421.09,197.62a46.7,46.7,0,0,1-.69,8.08,47.48,47.48,0,0,1-91.24,8.6,46.27,46.27,0,0,1-2.24-8.07,47.87,47.87,0,0,1-.78-8.61,47.48,47.48,0,1,1,94.95,0Z"/></g></g></svg>